# xmcd
#
# Track frame offsets:
#	150
#	17966
#	32634
#	45230
#	60412
#	75876
#	91889
#	105567
#	121298
#	134524
#	148026
#	163299
#	179493
#	195709
#	210816
#	228803
#	243202
#	257184
#	271630
#	289282
#	305395
#	318015
#
# Disc length: 4498 seconds
#
# Revision: 0
# Processed by: cddbd v1.5.1PL0 Copyright (c) Steve Scherf et al.
# Submitted via: dBpowerAMP V4.0
#
DISCID=1f119016
DTITLE=CHEIRO DE MENINA - apaixonado vol. 8
DYEAR=2004
DGENRE=forró
TTITLE0=ponto final
TTITLE1=os corações não são iguais
TTITLE2=vergonha na cara
TTITLE3=não mereço voce
TTITLE4=dependente do amor
TTITLE5=mudança radical
TTITLE6=mulher comprometida
TTITLE7=hamrham
TTITLE8=o onibus das seis
TTITLE9=alto falante vai tremer
TTITLE10=lobo mau
TTITLE11=ela chora na vara
TTITLE12=corda bamba
TTITLE13=beco sem saida
TTITLE14=me diz - withaut you
TTITLE15=chorando por ela
TTITLE16=objeto de prazer
TTITLE17=dono do mundo
TTITLE18=receita
TTITLE19=uma semana e meia de amor
TTITLE20=os verdes campos da minha terra
TTITLE21=o mundo - de joelhos
EXTD=
EXTT0=
EXTT1=
EXTT2=
EXTT3=
EXTT4=
EXTT5=
EXTT6=
EXTT7=
EXTT8=
EXTT9=
EXTT10=
EXTT11=
EXTT12=
EXTT13=
EXTT14=
EXTT15=
EXTT16=
EXTT17=
EXTT18=
EXTT19=
EXTT20=
EXTT21=
PLAYORDER=
